<svg width="1096" height="691" viewBox="0 0 1096 691" fill="none" xmlns="http://www.w3.org/2000/svg">
<g opacity="0.6">
<path opacity="0.4" d="M127.83 371.3H127.91L160.45 368.19C160.498 368.408 160.572 368.62 160.67 368.82C160.827 369.139 161.046 369.423 161.313 369.657C161.581 369.89 161.893 370.068 162.23 370.18C162.39 370.231 162.554 370.268 162.72 370.29C163.344 370.375 163.978 370.238 164.511 369.904C165.045 369.57 165.444 369.059 165.64 368.46C165.751 368.124 165.795 367.77 165.769 367.418C165.743 367.065 165.648 366.721 165.49 366.406C165.331 366.09 165.111 365.809 164.844 365.578C164.576 365.347 164.266 365.171 163.93 365.06C163.772 365.001 163.607 364.961 163.44 364.94C163.043 364.89 162.641 364.928 162.26 365.05L155 349.27C155.437 349 155.788 348.611 156.012 348.148C156.235 347.686 156.322 347.169 156.262 346.659C156.203 346.148 155.998 345.666 155.674 345.267C155.349 344.869 154.918 344.572 154.43 344.41C154.089 344.28 153.726 344.221 153.362 344.235C152.998 344.249 152.64 344.337 152.311 344.493C151.981 344.65 151.687 344.871 151.446 345.144C151.204 345.417 151.02 345.736 150.906 346.082C150.791 346.428 150.747 346.794 150.777 347.157C150.808 347.52 150.911 347.873 151.082 348.196C151.252 348.518 151.486 348.802 151.769 349.031C152.053 349.261 152.379 349.43 152.73 349.53C152.89 349.583 153.054 349.623 153.22 349.65C153.617 349.697 154.02 349.656 154.4 349.53L161.67 365.32C161.128 365.648 160.72 366.159 160.52 366.76C160.441 367.013 160.401 367.275 160.4 367.54L128 370.63L76.13 320.15C76.3528 319.872 76.5157 319.55 76.6086 319.206C76.7015 318.862 76.7224 318.503 76.67 318.15L128.9 306.57C128.942 306.563 128.982 306.547 129.018 306.524C129.054 306.501 129.084 306.47 129.108 306.435C129.131 306.399 129.147 306.359 129.155 306.317C129.162 306.275 129.16 306.231 129.15 306.19C129.142 306.147 129.125 306.107 129.101 306.071C129.076 306.035 129.045 306.005 129.008 305.981C128.972 305.958 128.931 305.942 128.888 305.935C128.846 305.928 128.802 305.93 128.76 305.94L76.5 317.5C76.5 317.43 76.45 317.35 76.42 317.28C76.0992 316.641 75.5382 316.156 74.86 315.93C74.7001 315.879 74.5362 315.842 74.37 315.82C74.0006 315.769 73.6245 315.795 73.2662 315.899C72.9078 316.002 72.5752 316.18 72.29 316.42L33.07 278.24C33.0067 278.179 32.9225 278.146 32.835 278.146C32.7474 278.146 32.6632 278.179 32.6 278.24C32.5401 278.302 32.5066 278.384 32.5066 278.47C32.5066 278.556 32.5401 278.638 32.6 278.7L71.83 316.88C71.6652 317.11 71.5339 317.363 71.44 317.63C71.3337 317.952 71.2896 318.291 71.31 318.63L29.71 327.87C29.6433 327.886 29.5834 327.923 29.5386 327.975C29.4938 328.027 29.4663 328.092 29.46 328.16C29.4564 328.227 29.4724 328.295 29.5062 328.353C29.5399 328.412 29.5898 328.459 29.65 328.49L127.75 371.27L127.83 371.3Z" fill="url(#paint0_linear_70_4823)"/>
<path opacity="0.4" d="M1095.77 147.85C1095.74 147.769 1095.67 147.704 1095.59 147.669C1095.51 147.633 1095.42 147.63 1095.34 147.66L1039.34 170.11L1027.7 144.2C1027.66 144.123 1027.6 144.063 1027.52 144.033C1027.44 144.003 1027.35 144.006 1027.27 144.04C1027.23 144.057 1027.2 144.082 1027.17 144.113C1027.14 144.144 1027.11 144.181 1027.1 144.221C1027.08 144.261 1027.08 144.304 1027.08 144.347C1027.08 144.389 1027.09 144.431 1027.11 144.47L1038.78 170.4L1001.7 192.86L984.85 168.14C985.117 167.898 985.333 167.603 985.483 167.275C985.634 166.947 985.716 166.592 985.725 166.231C985.735 165.871 985.671 165.512 985.538 165.176C985.404 164.841 985.204 164.536 984.95 164.28L1046.8 94.4C1047.01 94.5441 1047.24 94.6617 1047.48 94.75C1047.64 94.8019 1047.8 94.8388 1047.97 94.86C1048.59 94.943 1049.23 94.8055 1049.76 94.4714C1050.29 94.1373 1050.69 93.6275 1050.89 93.03C1051.12 92.3549 1051.07 91.6179 1050.75 90.9792C1050.44 90.3406 1049.88 89.8521 1049.21 89.62C1049.05 89.5691 1048.89 89.5323 1048.72 89.51C1048.1 89.425 1047.46 89.5616 1046.93 89.896C1046.4 90.2304 1046 90.7414 1045.8 91.34C1045.6 91.9481 1045.62 92.6089 1045.87 93.2L965.21 138.25L984.36 92.39C984.481 92.4305 984.604 92.4606 984.73 92.48C985.351 92.5651 985.983 92.4295 986.515 92.097C987.046 91.7644 987.445 91.2559 987.64 90.66C987.754 90.3244 987.8 89.9696 987.776 89.616C987.752 89.2624 987.658 88.9171 987.5 88.6C987.343 88.2824 987.124 87.9994 986.856 87.7676C986.588 87.5358 986.277 87.3598 985.94 87.25C985.779 87.1912 985.611 87.1509 985.44 87.13C985.007 87.0751 984.568 87.1256 984.159 87.2771C983.749 87.4285 983.383 87.6765 983.09 88L904.61 32.47C904.684 32.3314 904.747 32.1877 904.8 32.04C905.023 31.3603 904.969 30.6202 904.65 29.98C904.492 29.6611 904.272 29.3772 904.002 29.1453C903.733 28.9134 903.419 28.7381 903.08 28.63C902.921 28.5748 902.757 28.5346 902.59 28.51C901.968 28.4275 901.336 28.5653 900.805 28.8995C900.273 29.2337 899.875 29.7433 899.68 30.34C899.566 30.6756 899.52 31.0304 899.544 31.384C899.568 31.7376 899.662 32.0829 899.82 32.4C900.143 33.0367 900.703 33.5214 901.38 33.75C901.54 33.7998 901.704 33.8366 901.87 33.86C902.509 33.9464 903.159 33.8009 903.7 33.45L930.94 66.2L903.21 102.57C903.048 102.477 902.877 102.4 902.7 102.34C902.54 102.287 902.376 102.247 902.21 102.22C901.586 102.137 900.953 102.274 900.42 102.609C899.887 102.943 899.487 103.453 899.29 104.05C899.25 104.174 899.219 104.301 899.2 104.43L860.42 102.33L875.76 61.71C875.776 61.67 875.784 61.6272 875.783 61.5842C875.782 61.5412 875.772 61.4988 875.754 61.4596C875.737 61.4204 875.711 61.3852 875.68 61.356C875.648 61.3269 875.611 61.3044 875.57 61.29C875.489 61.2606 875.4 61.264 875.321 61.2995C875.243 61.335 875.181 61.3998 875.15 61.48L859.78 102.27L837.78 101.08L841.84 17C841.844 16.9352 841.827 16.8708 841.793 16.8154C841.759 16.76 841.709 16.7163 841.65 16.69C841.591 16.6621 841.525 16.6529 841.461 16.6636C841.396 16.6744 841.337 16.7045 841.29 16.75L783.53 73.97L766.31 58.49C766.465 58.28 766.587 58.0473 766.67 57.8C766.783 57.4638 766.827 57.1086 766.802 56.755C766.776 56.4014 766.68 56.0564 766.52 55.74C766.33 55.3691 766.056 55.0474 765.72 54.8L782.08 26.3C782.103 26.2637 782.118 26.2231 782.124 26.1807C782.13 26.1383 782.128 26.095 782.117 26.0537C782.105 26.0123 782.086 25.9738 782.059 25.9404C782.032 25.9071 781.998 25.8797 781.96 25.86C781.923 25.8387 781.883 25.8248 781.841 25.8193C781.799 25.8138 781.756 25.8167 781.715 25.8279C781.674 25.839 781.636 25.8582 781.602 25.8844C781.569 25.9105 781.541 25.943 781.52 25.98L765.15 54.48C765.09 54.4441 765.026 54.4139 764.96 54.39C764.8 54.3391 764.636 54.3023 764.47 54.28C764.028 54.2179 763.577 54.2696 763.16 54.43L735.26 0.860001C735.237 0.814539 735.203 0.775376 735.161 0.745796C735.119 0.716216 735.071 0.697083 735.02 0.690002C734.915 0.690718 734.813 0.725845 734.73 0.790001L665.9 76.57C665.869 76.5998 665.845 76.6356 665.828 76.6751C665.811 76.7146 665.803 76.7571 665.803 76.8C665.803 76.8429 665.811 76.8854 665.828 76.9249C665.845 76.9644 665.869 77.0002 665.9 77.03C665.962 77.0899 666.044 77.1234 666.13 77.1234C666.216 77.1234 666.299 77.0899 666.36 77.03L734.9 1.57L762.59 54.72C762.119 55.0579 761.768 55.5381 761.59 56.09C761.565 56.1688 761.545 56.2489 761.53 56.33L720.21 51.87C720.124 51.8616 720.038 51.8872 719.971 51.9414C719.904 51.9957 719.86 52.0741 719.85 52.16C719.842 52.246 719.867 52.3319 719.922 52.3993C719.976 52.4666 720.054 52.5099 720.14 52.52L761.42 56.99C761.425 57.2869 761.479 57.5809 761.58 57.86L701.05 88.27C700.972 88.3087 700.913 88.3767 700.884 88.4591C700.856 88.5415 700.862 88.6317 700.9 88.71C700.925 88.7571 700.961 88.7978 701.004 88.829C701.048 88.8602 701.097 88.8811 701.15 88.89C701.212 88.9092 701.278 88.9092 701.34 88.89L761.87 58.47C762.032 58.7102 762.231 58.9229 762.46 59.1L747.88 83.37C747.843 83.4246 747.823 83.4891 747.823 83.555C747.823 83.6209 747.843 83.6854 747.88 83.74L828.01 186.12L792.06 219.27C791.672 218.939 791.196 218.727 790.69 218.66C790.028 218.577 789.359 218.742 788.811 219.124C788.264 219.505 787.877 220.076 787.726 220.726C787.574 221.376 787.668 222.058 787.991 222.643C788.313 223.227 788.84 223.671 789.47 223.89C789.63 223.943 789.794 223.983 789.96 224.01C790.556 224.086 791.161 223.963 791.68 223.66L808.29 245.92C807.974 246.227 807.734 246.604 807.59 247.02C807.375 247.68 807.425 248.397 807.73 249.02L773.94 270.79C773.612 270.326 773.147 269.976 772.61 269.79C772.447 269.739 772.28 269.702 772.11 269.68C771.624 269.616 771.131 269.685 770.681 269.88C770.232 270.076 769.844 270.389 769.56 270.788C769.275 271.187 769.104 271.655 769.066 272.144C769.027 272.632 769.122 273.121 769.34 273.56C769.665 274.199 770.229 274.685 770.91 274.91C771.398 275.076 771.923 275.098 772.422 274.973C772.922 274.848 773.375 274.582 773.727 274.206C774.08 273.831 774.316 273.362 774.409 272.855C774.502 272.349 774.447 271.826 774.25 271.35L808.08 249.57C808.402 249.957 808.824 250.247 809.3 250.41C809.46 250.46 809.624 250.497 809.79 250.52C810.413 250.608 811.047 250.473 811.581 250.14C812.115 249.808 812.514 249.298 812.71 248.7C812.825 248.364 812.871 248.009 812.845 247.655C812.819 247.301 812.722 246.956 812.56 246.64C812.359 246.25 812.069 245.914 811.712 245.658C811.356 245.403 810.944 245.235 810.51 245.17C809.925 245.098 809.332 245.217 808.82 245.51L792.21 223.26C792.676 222.81 792.963 222.206 793.018 221.561C793.073 220.916 792.893 220.273 792.51 219.75L828.68 186.39C828.712 186.364 828.736 186.329 828.75 186.29L860.21 102.94L899.21 105.04C899.234 105.389 899.329 105.729 899.49 106.04C899.719 106.479 900.065 106.846 900.49 107.1L863.53 184.86C863.508 184.905 863.497 184.955 863.497 185.005C863.497 185.055 863.508 185.105 863.53 185.15L888.38 235.25L895.59 261.72C895.202 261.856 894.851 262.079 894.563 262.372C894.275 262.665 894.059 263.02 893.93 263.41C893.815 263.746 893.77 264.101 893.795 264.455C893.821 264.809 893.918 265.154 894.08 265.47C894.193 265.684 894.335 265.883 894.5 266.06L864.56 303.01L831.32 278.45C831.262 278.404 831.19 278.379 831.115 278.379C831.041 278.379 830.968 278.404 830.91 278.45C830.857 278.5 830.821 278.566 830.809 278.638C830.796 278.71 830.807 278.785 830.84 278.85L851.05 316.02C850.579 316.404 850.253 316.938 850.127 317.533C850.002 318.128 850.084 318.748 850.36 319.29C850.484 319.528 850.643 319.747 850.83 319.94L828.1 347.94C828.1 347.94 828.1 347.94 828.1 348L801.6 427.77L740.32 435.77C740.275 435.583 740.207 435.402 740.12 435.23C739.973 434.942 739.777 434.681 739.54 434.46L776.54 383.02C776.565 382.986 776.583 382.947 776.593 382.906C776.603 382.865 776.605 382.822 776.598 382.781C776.592 382.739 776.577 382.699 776.555 382.663C776.533 382.626 776.504 382.595 776.47 382.57C776.436 382.545 776.397 382.527 776.356 382.517C776.315 382.507 776.272 382.505 776.231 382.512C776.189 382.518 776.149 382.533 776.113 382.555C776.076 382.577 776.045 382.606 776.02 382.64L739.02 434.08C738.878 433.997 738.727 433.93 738.57 433.88C738.411 433.826 738.247 433.786 738.08 433.76C737.507 433.685 736.924 433.795 736.419 434.076C735.913 434.356 735.511 434.792 735.271 435.318C735.031 435.844 734.967 436.434 735.087 436.999C735.208 437.565 735.507 438.077 735.94 438.46L673.03 530.18L672.64 530.01C672.477 529.959 672.31 529.922 672.14 529.9C671.642 529.835 671.136 529.91 670.679 530.117C670.221 530.323 669.83 530.654 669.55 531.07L604.13 497.89C604.13 497.89 604.07 497.89 604.04 497.89C604.001 497.881 603.96 497.881 603.92 497.89C603.878 497.898 603.839 497.919 603.81 497.95C603.81 497.95 603.75 497.95 603.73 497.95L577.84 530.48L517.14 461.19C517.11 461.158 517.072 461.134 517.03 461.12C516.968 461.1 516.902 461.1 516.84 461.12L422.64 489.5C422.492 489.154 422.272 488.845 421.994 488.591C421.716 488.338 421.388 488.146 421.03 488.03C420.872 487.97 420.708 487.93 420.54 487.91C419.916 487.827 419.283 487.964 418.75 488.299C418.217 488.633 417.817 489.143 417.62 489.74C417.422 490.345 417.447 491.001 417.69 491.59L408.62 496.59L333.41 468.25C333.41 468.19 333.41 468.13 333.41 468.07L399.65 471.44C399.693 471.443 399.736 471.437 399.776 471.423C399.817 471.408 399.854 471.386 399.886 471.357C399.918 471.328 399.943 471.293 399.961 471.254C399.979 471.215 399.989 471.173 399.99 471.13C399.994 471.087 399.989 471.043 399.976 471.002C399.962 470.961 399.94 470.923 399.911 470.891C399.881 470.859 399.846 470.834 399.806 470.816C399.766 470.799 399.723 470.79 399.68 470.79L333.45 467.42C333.408 466.888 333.212 466.381 332.885 465.96C332.558 465.538 332.115 465.222 331.61 465.05C331.45 465 331.286 464.963 331.12 464.94C330.693 464.884 330.258 464.931 329.853 465.077C329.448 465.223 329.083 465.464 328.79 465.78L304.37 448.06C304.453 447.918 304.52 447.767 304.57 447.61C304.682 447.285 304.728 446.94 304.706 446.597C304.683 446.254 304.593 445.918 304.44 445.61L329.12 429.91C329.437 430.309 329.865 430.604 330.35 430.76C330.506 430.814 330.667 430.854 330.83 430.88C331.498 430.972 332.175 430.81 332.73 430.428C333.285 430.045 333.676 429.469 333.828 428.813C333.98 428.156 333.88 427.467 333.549 426.879C333.219 426.292 332.68 425.85 332.04 425.64C331.884 425.589 331.723 425.552 331.56 425.53C330.936 425.446 330.303 425.582 329.768 425.914C329.234 426.246 328.831 426.754 328.63 427.35C328.566 427.575 328.526 427.806 328.51 428.04L287.96 430.57C287.874 430.095 287.662 429.652 287.348 429.287C287.033 428.921 286.627 428.646 286.17 428.49C286.01 428.44 285.846 428.403 285.68 428.38C285.324 428.323 284.961 428.337 284.611 428.423C284.26 428.509 283.931 428.663 283.642 428.878C283.352 429.093 283.109 429.364 282.926 429.674C282.743 429.985 282.624 430.328 282.576 430.686C282.528 431.043 282.552 431.406 282.646 431.754C282.741 432.102 282.904 432.427 283.126 432.711C283.348 432.994 283.625 433.231 283.94 433.406C284.255 433.581 284.602 433.691 284.96 433.73C285.328 433.776 285.701 433.747 286.057 433.644C286.413 433.541 286.744 433.366 287.03 433.13L299.84 445.24C299.455 445.743 299.265 446.367 299.303 446.999C299.342 447.631 299.607 448.228 300.05 448.68L274.35 479.57C274.167 479.448 273.969 479.35 273.76 479.28C273.602 479.22 273.438 479.18 273.27 479.16C272.554 479.078 271.835 479.283 271.27 479.73L234.63 442.68C234.826 442.435 234.978 442.157 235.08 441.86C235.302 441.18 235.248 440.439 234.927 439.799C234.607 439.159 234.048 438.67 233.37 438.44C233.21 438.389 233.046 438.352 232.88 438.33C232.413 438.266 231.938 438.326 231.502 438.504C231.065 438.681 230.683 438.97 230.394 439.342C230.104 439.713 229.917 440.154 229.852 440.621C229.786 441.087 229.844 441.563 230.02 442L174.68 472.28C174.358 471.81 173.891 471.459 173.35 471.28C173.191 471.226 173.027 471.186 172.86 471.16C172.305 471.09 171.743 471.195 171.25 471.46L133.62 416.96C133.585 416.912 133.538 416.873 133.484 416.848C133.429 416.824 133.369 416.814 133.31 416.82C133.252 416.829 133.197 416.853 133.152 416.89C133.106 416.927 133.071 416.975 133.05 417.03L120.63 450.22L88.5401 389.22C88.5247 389.175 88.4998 389.134 88.4671 389.1C88.4344 389.066 88.3947 389.039 88.3508 389.021C88.3068 389.003 88.2595 388.996 88.2122 388.998C88.1648 389 88.1185 389.013 88.0764 389.034C88.0343 389.056 87.9974 389.087 87.9682 389.124C87.939 389.161 87.9182 389.204 87.9071 389.251C87.8961 389.297 87.8951 389.345 87.9042 389.391C87.9134 389.438 87.9324 389.482 87.9601 389.52L120.32 451.05L86.7601 540.72L44.0101 524.57C44.1658 523.953 44.0949 523.3 43.8101 522.73C43.594 522.304 43.2699 521.942 42.8701 521.68L64.7501 476.98C64.7703 476.941 64.7825 476.899 64.7859 476.856C64.7893 476.813 64.7838 476.769 64.7698 476.728C64.7557 476.687 64.7335 476.649 64.7043 476.616C64.6751 476.584 64.6396 476.558 64.6001 476.54C64.5229 476.505 64.4351 476.501 64.3551 476.529C64.275 476.557 64.2088 476.615 64.1701 476.69L42.2801 521.39C42.1219 521.331 41.9575 521.291 41.7901 521.27C41.1679 521.188 40.5367 521.325 40.0042 521.657C39.4717 521.989 39.0708 522.495 38.8701 523.09C38.6649 523.669 38.6649 524.301 38.8701 524.88L1.07008 544.36C0.993837 544.4 0.93648 544.469 0.910309 544.551C0.884138 544.634 0.891238 544.723 0.930081 544.8C0.953653 544.846 0.987545 544.887 1.02915 544.918C1.07076 544.949 1.11897 544.97 1.17008 544.98C1.2359 544.995 1.30426 544.995 1.37008 544.98L39.2101 525.42C39.5454 525.894 40.0265 526.245 40.5801 526.42C40.7399 526.471 40.9039 526.508 41.0701 526.53C41.6187 526.604 42.1768 526.507 42.6687 526.253C43.1606 525.999 43.5626 525.6 43.8201 525.11L86.8701 541.39C86.9078 541.407 86.9487 541.416 86.9901 541.416C87.0315 541.416 87.0724 541.407 87.1101 541.39C87.1508 541.374 87.1878 541.35 87.2188 541.319C87.2497 541.288 87.274 541.251 87.2901 541.21L120.76 451.77L153.21 513.57C153.236 513.616 153.272 513.655 153.315 513.684C153.359 513.714 153.408 513.733 153.46 513.74C153.52 513.739 153.579 513.722 153.63 513.69C153.681 513.659 153.723 513.614 153.75 513.56L171.56 476.4C171.72 476.451 171.884 476.488 172.05 476.51C172.544 476.578 173.046 476.505 173.5 476.3L216.91 548.97C216.936 549.014 216.973 549.052 217.016 549.08C217.059 549.107 217.109 549.125 217.16 549.13C217.213 549.136 217.267 549.128 217.316 549.107C217.365 549.086 217.408 549.052 217.44 549.01L228.04 536.26L257.48 569.08C257.53 569.131 257.594 569.165 257.664 569.178C257.734 569.19 257.806 569.181 257.87 569.15C257.933 569.118 257.984 569.067 258.014 569.004C258.045 568.94 258.054 568.869 258.04 568.8L247.56 515.68C247.932 515.563 248.273 515.367 248.562 515.106C248.85 514.844 249.078 514.523 249.231 514.164C249.383 513.806 249.455 513.419 249.443 513.029C249.431 512.64 249.334 512.258 249.16 511.91C249.053 511.703 248.918 511.512 248.76 511.34L271.44 484.06C271.635 484.185 271.843 484.289 272.06 484.37C272.22 484.421 272.384 484.458 272.55 484.48C272.901 484.53 273.259 484.51 273.602 484.421C273.946 484.331 274.268 484.175 274.55 483.96L300.49 510.18C300.512 510.208 300.539 510.232 300.57 510.25L345.21 532.35C345.272 532.37 345.338 532.37 345.4 532.35H345.45H345.51L408.67 497.35L425.97 503.87L460.19 577.7L460.25 577.77C460.294 577.812 460.35 577.84 460.41 577.85H460.52L557.12 554.85C557.12 554.94 557.18 555.03 557.23 555.12C557.385 555.439 557.603 555.724 557.871 555.956C558.139 556.188 558.452 556.363 558.79 556.47C559.338 556.663 559.934 556.67 560.485 556.489C561.037 556.308 561.513 555.95 561.84 555.47L584.36 567.42L522.96 592.11C522.879 592.143 522.815 592.207 522.781 592.288C522.747 592.368 522.747 592.459 522.78 592.54C522.801 592.592 522.834 592.638 522.878 592.674C522.922 592.709 522.975 592.732 523.03 592.74C523.086 592.75 523.144 592.75 523.2 592.74L585.11 567.84L630.99 592.19H631.08H631.21H631.28L670.41 535.13L670.81 535.3C670.97 535.352 671.134 535.389 671.3 535.41C671.67 535.463 672.047 535.435 672.406 535.33C672.765 535.225 673.097 535.044 673.38 534.8L736.45 593.89H736.51H736.6C736.659 593.904 736.721 593.904 736.78 593.89H736.84L770.21 523.3H770.37L754.62 637.66C754.61 637.713 754.614 637.767 754.632 637.818C754.649 637.869 754.68 637.914 754.72 637.95C754.769 637.99 754.828 638.018 754.89 638.03C754.93 638.04 754.971 638.04 755.01 638.03L826.32 620.97C826.461 621.347 826.684 621.688 826.972 621.968C827.261 622.249 827.609 622.461 827.99 622.59L817.88 676.59C817.232 676.561 816.594 676.767 816.085 677.169C815.576 677.572 815.229 678.144 815.107 678.782C814.986 679.42 815.098 680.08 815.424 680.641C815.749 681.203 816.266 681.629 816.88 681.84C817.04 681.891 817.204 681.928 817.37 681.95C817.992 682.034 818.625 681.898 819.158 681.565C819.69 681.233 820.091 680.726 820.29 680.13C820.29 680.08 820.29 680.03 820.29 679.98L875.56 687.86C875.541 688.508 875.757 689.14 876.168 689.642C876.578 690.143 877.156 690.479 877.794 690.589C878.433 690.698 879.09 690.573 879.644 690.237C880.198 689.902 880.612 689.377 880.81 688.76C881.035 688.081 880.981 687.341 880.66 686.701C880.34 686.062 879.779 685.576 879.1 685.35L878.78 685.28L883.97 619.37C884.601 619.344 885.203 619.097 885.672 618.673C886.14 618.249 886.444 617.674 886.532 617.048C886.62 616.423 886.486 615.786 886.153 615.249C885.82 614.712 885.31 614.309 884.71 614.11C884.55 614.059 884.386 614.022 884.22 614C883.597 613.914 882.964 614.05 882.431 614.382C881.898 614.715 881.498 615.223 881.3 615.82C881.231 616.044 881.191 616.276 881.18 616.51L831.43 619.51C831.382 619.262 831.305 619.02 831.2 618.79C831.042 618.471 830.822 618.187 830.552 617.955C830.283 617.723 829.969 617.548 829.63 617.44C829.474 617.386 829.313 617.346 829.15 617.32C828.664 617.259 828.171 617.328 827.72 617.52L804.81 578.13C805.159 577.821 805.418 577.424 805.56 576.98C805.675 576.644 805.721 576.289 805.695 575.935C805.669 575.581 805.572 575.236 805.41 574.92C805.089 574.281 804.528 573.796 803.85 573.57C803.69 573.519 803.526 573.482 803.36 573.46C802.956 573.404 802.545 573.445 802.16 573.58L772.66 522.86C772.898 522.679 773.104 522.459 773.27 522.21L848.64 560.04H848.72C848.72 560.04 848.77 560.04 848.8 560.04L907.49 556.13C907.539 556.299 907.602 556.463 907.68 556.62C907.835 556.939 908.053 557.224 908.321 557.456C908.589 557.688 908.902 557.863 909.24 557.97C909.4 558.024 909.564 558.064 909.73 558.09C910.398 558.182 911.075 558.02 911.63 557.638C912.185 557.255 912.576 556.679 912.728 556.023C912.88 555.366 912.78 554.677 912.449 554.089C912.119 553.502 911.58 553.06 910.94 552.85L910.62 552.78L907.01 462.07C907.469 461.972 907.895 461.756 908.245 461.444C908.596 461.132 908.859 460.734 909.01 460.29C909.16 459.798 909.16 459.272 909.01 458.78L979.71 427.78C980.037 428.34 980.556 428.762 981.17 428.97C981.33 429.021 981.494 429.058 981.66 429.08C982.147 429.148 982.642 429.081 983.094 428.887C983.545 428.692 983.934 428.378 984.22 427.979C984.505 427.579 984.676 427.109 984.713 426.619C984.75 426.129 984.652 425.638 984.43 425.2C984.274 424.882 984.055 424.598 983.787 424.366C983.519 424.134 983.207 423.959 982.87 423.85C982.711 423.796 982.547 423.756 982.38 423.73C981.934 423.671 981.48 423.726 981.06 423.89L919.91 307.69L934.15 296.39C934.205 296.332 934.238 296.256 934.241 296.176C934.245 296.096 934.219 296.018 934.169 295.955C934.119 295.893 934.047 295.851 933.969 295.837C933.89 295.823 933.809 295.838 933.74 295.88L919.6 307.1L898.21 266.37C898.622 266.045 898.931 265.607 899.1 265.11C899.31 264.469 899.271 263.773 898.99 263.16L925.32 249.43L1049.21 275.2H1049.31C1049.31 275.2 1049.31 275.2 1049.37 275.2C1049.41 275.19 1049.46 275.17 1049.49 275.14L1049.55 275.06C1049.55 275.06 1049.55 275.06 1049.55 275C1049.55 274.94 1049.55 275 1049.55 274.94C1049.55 274.88 1049.55 274.94 1049.55 274.88L1039.55 170.94L1086.55 177.67C1086.59 177.681 1086.64 177.683 1086.69 177.675C1086.73 177.667 1086.78 177.649 1086.81 177.623C1086.85 177.597 1086.89 177.564 1086.91 177.524C1086.93 177.485 1086.95 177.441 1086.96 177.395C1086.96 177.349 1086.96 177.303 1086.95 177.258C1086.93 177.214 1086.91 177.172 1086.88 177.137C1086.85 177.102 1086.82 177.073 1086.77 177.053C1086.73 177.033 1086.69 177.021 1086.64 177.02L1040.4 170.41L1095.54 148.3C1095.59 148.288 1095.63 148.266 1095.67 148.236C1095.7 148.206 1095.73 148.169 1095.76 148.126C1095.78 148.084 1095.79 148.037 1095.79 147.99C1095.79 147.942 1095.79 147.895 1095.77 147.85ZM828.35 185.5L748.55 83.5L763.02 59.39C763.097 59.4327 763.177 59.4694 763.26 59.5C763.42 59.5509 763.584 59.5877 763.75 59.61C764.13 59.6627 764.517 59.6328 764.885 59.5223C765.252 59.4119 765.592 59.2235 765.88 58.97L783.32 74.65C783.381 74.7069 783.462 74.7386 783.545 74.7386C783.629 74.7386 783.709 74.7069 783.77 74.65L841.21 17.8L837.21 100.57L814.7 74.87C814.951 74.5959 815.142 74.2723 815.26 73.92C815.482 73.241 815.427 72.5018 815.107 71.8632C814.786 71.2246 814.227 70.7382 813.55 70.51C813.39 70.4602 813.226 70.4234 813.06 70.4C812.436 70.315 811.802 70.4516 811.269 70.786C810.735 71.1204 810.336 71.6314 810.14 72.23C809.981 72.7089 809.961 73.2229 810.081 73.713C810.201 74.203 810.457 74.6491 810.82 75L798.59 91C798.425 90.904 798.25 90.8237 798.07 90.76C797.911 90.7081 797.747 90.6712 797.58 90.65C796.945 90.572 796.302 90.7222 795.768 91.0739C795.233 91.4255 794.84 91.9558 794.66 92.57C794.438 93.249 794.493 93.9882 794.813 94.6268C795.134 95.2654 795.693 95.7517 796.37 95.98C796.53 96.0298 796.694 96.0666 796.86 96.09C797.349 96.1558 797.848 96.0851 798.299 95.8857C798.751 95.6862 799.139 95.3659 799.42 94.96L826.29 109.33C826.29 109.33 826.29 109.41 826.24 109.45C826.125 109.786 826.08 110.141 826.105 110.495C826.131 110.849 826.228 111.194 826.39 111.51C826.711 112.149 827.272 112.634 827.95 112.86C828.11 112.911 828.274 112.948 828.44 112.97C829.063 113.056 829.696 112.92 830.229 112.588C830.763 112.255 831.163 111.747 831.36 111.15C831.508 110.716 831.543 110.252 831.463 109.801C831.382 109.349 831.189 108.926 830.9 108.57L837.6 101.68L859.54 102.86L828.35 185.5ZM888.98 235.02L864.18 185.02L901.03 107.45C901.19 107.502 901.354 107.539 901.52 107.56C902.044 107.625 902.575 107.538 903.05 107.31L958.29 193.31L939.04 204.31C938.722 203.845 938.263 203.494 937.73 203.31C937.267 203.16 936.771 203.137 936.296 203.244C935.821 203.352 935.384 203.585 935.03 203.92L920.62 191.97C920.748 191.785 920.849 191.583 920.92 191.37C921.145 190.691 921.091 189.951 920.77 189.311C920.45 188.672 919.889 188.186 919.21 187.96C919.05 187.91 918.886 187.873 918.72 187.85C918.122 187.767 917.513 187.888 916.991 188.193C916.47 188.498 916.066 188.97 915.846 189.532C915.625 190.095 915.6 190.715 915.775 191.293C915.95 191.872 916.315 192.374 916.81 192.72L912.21 201.38H912.09C911.931 201.326 911.767 201.286 911.6 201.26C910.977 201.179 910.344 201.317 909.812 201.651C909.279 201.985 908.879 202.494 908.68 203.09C908.565 203.426 908.52 203.781 908.545 204.135C908.571 204.489 908.668 204.834 908.83 205.15C909.151 205.789 909.712 206.274 910.39 206.5C910.55 206.551 910.714 206.588 910.88 206.61C911.503 206.696 912.136 206.56 912.669 206.228C913.203 205.895 913.603 205.387 913.8 204.79C913.832 204.685 913.855 204.578 913.87 204.47L934.21 205.98C934.23 206.358 934.325 206.729 934.49 207.07C934.811 207.709 935.372 208.194 936.05 208.42C936.21 208.471 936.374 208.508 936.54 208.53C937.011 208.597 937.491 208.537 937.931 208.357C938.372 208.177 938.756 207.883 939.045 207.506C939.334 207.128 939.518 206.68 939.577 206.208C939.635 205.736 939.568 205.257 939.38 204.82L958.92 193.67H958.99L981.39 168.36C981.622 168.546 981.887 168.689 982.17 168.78C982.328 168.837 982.493 168.874 982.66 168.89C983.226 168.967 983.801 168.858 984.3 168.58L1001.13 193.26L961.7 216.11L925.09 248.8L898.62 262.57C898.291 262.151 897.846 261.838 897.34 261.67C897.181 261.616 897.017 261.576 896.85 261.55C896.644 261.53 896.436 261.53 896.23 261.55L888.98 235.02ZM894.98 266.49C895.182 266.627 895.4 266.738 895.63 266.82C895.79 266.871 895.954 266.908 896.12 266.93H896.21L895.32 323.46C894.961 323.466 894.607 323.544 894.278 323.69C893.95 323.836 893.655 324.047 893.41 324.31L865.1 303.4L894.98 266.49ZM979.43 427.14L908.77 458.14C908.443 457.531 907.896 457.069 907.24 456.85C906.879 456.734 906.498 456.693 906.12 456.73L894.48 415.92L895.26 366.63L979.62 425.07C979.56 425.2 979.5 425.34 979.45 425.48C979.27 426.018 979.267 426.6 979.44 427.14H979.43ZM736.69 592.95L673.95 534.17C674.188 533.854 674.352 533.489 674.428 533.101C674.504 532.713 674.491 532.312 674.39 531.93L734.54 508.93L768.45 520.18C768.326 520.768 768.404 521.381 768.67 521.92C768.9 522.361 769.246 522.731 769.67 522.99L736.69 592.95ZM739.58 438.38L785.69 475.7L771.62 518.11H771.44C770.874 518.034 770.298 518.141 769.797 518.414C769.295 518.687 768.893 519.113 768.65 519.63L734.87 508.42L737.92 439.17C738.549 439.111 739.137 438.831 739.58 438.38ZM772.21 518.31L786.36 475.69L797.06 443.44L841.06 448.37L772.71 518.57C772.552 518.467 772.385 518.38 772.21 518.31ZM905.48 456.91C905.094 457.045 904.744 457.267 904.456 457.558C904.168 457.849 903.951 458.202 903.82 458.59C903.82 458.59 903.82 458.65 903.82 458.68L842.14 447.86L849.04 422.22L893.93 416.35M841.93 448.49L903.71 459.33C903.685 459.786 903.778 460.24 903.98 460.65L904.05 460.76L813.49 520.03L841.93 448.49ZM893.83 415.71L849.21 421.57L868.33 350.57C868.768 350.628 869.213 350.578 869.627 350.422C870.04 350.267 870.409 350.012 870.7 349.68L894.58 366.22L893.83 415.71ZM871.11 349.14C871.183 349.011 871.24 348.873 871.28 348.73C871.402 348.358 871.441 347.964 871.395 347.575C871.348 347.186 871.217 346.813 871.01 346.48L893.83 328.38C894.032 328.517 894.25 328.628 894.48 328.71C894.639 328.768 894.803 328.808 894.97 328.83H895.21L894.64 365.42L871.11 349.14ZM851.91 320.66C852.068 320.719 852.233 320.759 852.4 320.78C852.79 320.829 853.186 320.792 853.56 320.67L867.16 345.67C866.694 346 866.344 346.469 866.16 347.01C866.106 347.187 866.066 347.367 866.04 347.55L829.04 347.84L851.33 320.34C851.511 320.473 851.71 320.58 851.92 320.66H851.91ZM828.59 348.57L866.07 348.27C866.13 348.743 866.315 349.191 866.607 349.567C866.899 349.944 867.287 350.235 867.73 350.41L848.53 421.67L802.32 427.67L828.59 348.57ZM802.09 428.4L848.35 422.35L841.49 447.8L797.29 442.85L802.09 428.4ZM736.47 438.87C736.595 438.94 736.726 439 736.86 439.05C736.995 439.09 737.131 439.12 737.27 439.14L734.27 508.42L674.21 531.32C674.056 531.034 673.853 530.777 673.61 530.56L736.47 438.87ZM604.06 498.57L669.21 531.66C669.206 531.683 669.206 531.707 669.21 531.73C669.056 532.235 669.056 532.775 669.21 533.28L603.46 559.72L578.3 531L604.06 498.57ZM422.43 491.95L550.43 550.06L426.4 503.34L421.55 492.88C421.912 492.656 422.214 492.347 422.43 491.98V491.95ZM560.43 551.3C560.27 551.249 560.106 551.212 559.94 551.19C559.54 551.136 559.133 551.173 558.75 551.3L518.08 463.3L577.37 530.97L561.04 551.57C560.862 551.471 560.675 551.39 560.48 551.33L560.43 551.3ZM516.65 461.8L558.21 551.57C557.853 551.796 557.552 552.1 557.33 552.46L422.7 491.36C422.826 490.952 422.853 490.52 422.78 490.1L516.65 461.8ZM153.47 512.66L121.04 450.99L133.44 417.84L170.67 471.84C170.312 472.153 170.045 472.557 169.9 473.01C169.713 473.578 169.721 474.192 169.922 474.755C170.123 475.319 170.506 475.799 171.01 476.12L153.47 512.66ZM228.02 535.27L174.48 475.57C174.61 475.432 174.721 475.277 174.81 475.11L222.61 494.6C222.69 494.632 222.779 494.631 222.857 494.597C222.936 494.563 222.998 494.5 223.03 494.42C223.062 494.34 223.061 494.251 223.027 494.173C222.993 494.094 222.93 494.032 222.85 494L175.05 474.57C175.207 474.008 175.172 473.41 174.95 472.87L230.29 442.57C230.622 443.035 231.09 443.384 231.63 443.57C231.79 443.621 231.954 443.658 232.12 443.68C232.306 443.695 232.494 443.695 232.68 443.68L245.88 510.57C245.517 510.694 245.184 510.894 244.904 511.157C244.624 511.42 244.403 511.739 244.256 512.094C244.11 512.449 244.04 512.831 244.053 513.215C244.066 513.599 244.16 513.976 244.33 514.32C244.466 514.579 244.642 514.815 244.85 515.02L228.02 535.27ZM248.27 510.9C248.062 510.756 247.837 510.638 247.6 510.55C247.44 510.5 247.276 510.463 247.11 510.44C246.914 510.42 246.716 510.42 246.52 510.44L233.31 443.57C233.603 443.475 233.877 443.33 234.12 443.14L270.77 480.21C270.585 480.447 270.443 480.714 270.35 481C270.238 481.336 270.194 481.691 270.219 482.045C270.245 482.398 270.341 482.743 270.5 483.06C270.62 483.284 270.768 483.493 270.94 483.68L248.27 510.9ZM275 483.51C275.33 483.108 275.536 482.619 275.593 482.103C275.649 481.586 275.555 481.064 275.32 480.6C275.202 480.358 275.043 480.138 274.85 479.95L300.55 449.05C300.737 449.174 300.939 449.274 301.15 449.35C301.31 449.4 301.474 449.437 301.64 449.46C302.067 449.516 302.502 449.469 302.907 449.323C303.312 449.177 303.677 448.936 303.97 448.62L328.39 466.33C328.309 466.477 328.242 466.631 328.19 466.79C328.07 467.167 328.033 467.565 328.082 467.958C328.131 468.351 328.265 468.728 328.474 469.064C328.683 469.399 328.963 469.686 329.294 469.902C329.625 470.119 329.999 470.262 330.39 470.32C330.6 470.34 330.811 470.34 331.02 470.32L344.83 531.46L300.83 509.69L275 483.51ZM345.52 531.57L331.65 470.19C332.29 469.961 332.821 469.501 333.14 468.9L407.82 497.05L345.52 531.57ZM409.37 496.93L417.95 492.17C418.276 492.637 418.742 492.987 419.28 493.17C419.44 493.221 419.604 493.258 419.77 493.28C420.171 493.331 420.578 493.29 420.96 493.16L425.53 503.03L409.37 496.93ZM562.14 554.87C562.152 554.828 562.169 554.788 562.19 554.75C562.302 554.414 562.346 554.059 562.321 553.705C562.295 553.352 562.2 553.007 562.04 552.69C561.909 552.442 561.74 552.216 561.54 552.02L577.85 531.57L602.78 560.02L585.14 567.11L562.14 554.87ZM603.21 560.49L629.7 590.72L585.87 567.46L603.21 560.49ZM631.08 591.31L603.85 560.23L669.4 533.88C669.547 534.151 669.74 534.395 669.97 534.6L631.08 591.31ZM910.02 552.77C909.669 552.783 909.325 552.865 909.006 553.011C908.687 553.157 908.4 553.365 908.161 553.622C907.922 553.879 907.737 554.181 907.615 554.51C907.493 554.839 907.437 555.189 907.45 555.54L848.9 559.43L773.62 521.65V521.59C773.842 520.91 773.788 520.17 773.47 519.53C773.379 519.36 773.272 519.2 773.15 519.05L840.82 449.57L812.51 520.75C812.497 520.806 812.5 520.864 812.518 520.919C812.535 520.973 812.567 521.022 812.61 521.06C812.665 521.101 812.732 521.122 812.8 521.122C812.868 521.122 812.935 521.101 812.99 521.06L904.45 461.2C904.75 461.529 905.129 461.777 905.55 461.92C905.71 461.971 905.874 462.008 906.04 462.03C906.147 462.04 906.254 462.04 906.36 462.03L910.02 552.77ZM919.08 307.51L897.54 324.57C897.211 324.103 896.742 323.753 896.2 323.57L895.95 323.52L896.84 266.9C897.103 266.871 897.36 266.801 897.6 266.69L919.08 307.51ZM1048.85 274.38L951.55 236.44L988.69 227.71C988.732 227.702 988.773 227.685 988.808 227.661C988.844 227.636 988.874 227.605 988.896 227.568C988.919 227.531 988.933 227.49 988.939 227.448C988.945 227.405 988.942 227.361 988.93 227.32C988.911 227.235 988.859 227.162 988.786 227.115C988.713 227.068 988.625 227.052 988.54 227.07L950.38 236.07C950.313 236.085 950.252 236.121 950.207 236.173C950.162 236.226 950.135 236.291 950.13 236.36C950.124 236.43 950.141 236.501 950.179 236.561C950.217 236.621 950.273 236.666 950.34 236.69L1045.48 273.79L925.94 248.9L962.08 216.64L1001.77 193.57L1038.93 171.08L1048.85 274.38Z" fill="url(#paint1_linear_70_4823)"/>
</g>
<defs>
<linearGradient id="paint0_linear_70_4823" x1="156.045" y1="393.738" x2="-123.209" y2="93.4368" gradientUnits="userSpaceOnUse">
<stop offset="0.06" stop-color="#FF0F96"/>
<stop offset="0.35" stop-color="#8414FC"/>
<stop offset="0.37" stop-color="#7D24FC"/>
<stop offset="0.52" stop-color="#4AA2FF"/>
<stop offset="0.61" stop-color="#4FB7F2"/>
<stop offset="0.76" stop-color="#58D9DE"/>
<stop offset="0.86" stop-color="#A3DF7A"/>
<stop offset="0.95" stop-color="#E5E522"/>
<stop offset="0.99" stop-color="#FFE700"/>
</linearGradient>
<linearGradient id="paint1_linear_70_4823" x1="191.967" y1="-74.617" x2="1059.73" y2="926.752" gradientUnits="userSpaceOnUse">
<stop offset="0.06" stop-color="#FF0F96"/>
<stop offset="0.35" stop-color="#8414FC"/>
<stop offset="0.37" stop-color="#7D24FC"/>
<stop offset="0.52" stop-color="#4AA2FF"/>
<stop offset="0.61" stop-color="#4FB7F2"/>
<stop offset="0.76" stop-color="#58D9DE"/>
<stop offset="0.86" stop-color="#A3DF7A"/>
<stop offset="0.95" stop-color="#E5E522"/>
<stop offset="0.99" stop-color="#FFE700"/>
</linearGradient>
</defs>
</svg>
