<svg width="105" height="47" viewBox="0 0 105 47" fill="none" xmlns="http://www.w3.org/2000/svg">
<path d="M0.936 36.5V0.883998H6.936V36.5H0.936ZM26.331 36.836C23.707 36.836 21.371 36.276 19.323 35.156C17.275 34.004 15.659 32.436 14.475 30.452C13.291 28.468 12.699 26.212 12.699 23.684C12.699 21.124 13.291 18.868 14.475 16.916C15.659 14.932 17.275 13.38 19.323 12.26C21.371 11.14 23.707 10.58 26.331 10.58C28.987 10.58 31.339 11.14 33.387 12.26C35.467 13.38 37.083 14.916 38.235 16.868C39.419 18.82 40.011 21.092 40.011 23.684C40.011 26.212 39.419 28.468 38.235 30.452C37.083 32.436 35.467 34.004 33.387 35.156C31.339 36.276 28.987 36.836 26.331 36.836ZM26.331 31.7C27.803 31.7 29.115 31.38 30.267 30.74C31.419 30.1 32.315 29.172 32.955 27.956C33.627 26.74 33.963 25.316 33.963 23.684C33.963 22.02 33.627 20.596 32.955 19.412C32.315 18.196 31.419 17.268 30.267 16.628C29.115 15.988 27.819 15.668 26.379 15.668C24.907 15.668 23.595 15.988 22.443 16.628C21.323 17.268 20.427 18.196 19.755 19.412C19.083 20.596 18.747 22.02 18.747 23.684C18.747 25.316 19.083 26.74 19.755 27.956C20.427 29.172 21.323 30.1 22.443 30.74C23.595 31.38 24.891 31.7 26.331 31.7ZM57.3645 46.148C54.9965 46.148 52.6765 45.828 50.4045 45.188C48.1645 44.58 46.3245 43.684 44.8845 42.5L47.5725 37.988C48.6925 38.916 50.1005 39.652 51.7965 40.196C53.5245 40.772 55.2685 41.06 57.0285 41.06C59.8445 41.06 61.9085 40.404 63.2205 39.092C64.5325 37.812 65.1885 35.876 65.1885 33.284V28.724L65.6685 22.916L65.4765 17.108V10.868H71.1885V32.612C71.1885 37.252 70.0045 40.66 67.6365 42.836C65.2685 45.044 61.8445 46.148 57.3645 46.148ZM56.5965 35.348C54.1645 35.348 51.9565 34.836 49.9725 33.812C48.0205 32.756 46.4685 31.3 45.3165 29.444C44.1965 27.588 43.6365 25.412 43.6365 22.916C43.6365 20.452 44.1965 18.292 45.3165 16.436C46.4685 14.58 48.0205 13.14 49.9725 12.116C51.9565 11.092 54.1645 10.58 56.5965 10.58C58.7725 10.58 60.7245 11.012 62.4525 11.876C64.1805 12.74 65.5565 14.084 66.5805 15.908C67.6365 17.732 68.1645 20.068 68.1645 22.916C68.1645 25.764 67.6365 28.116 66.5805 29.972C65.5565 31.796 64.1805 33.156 62.4525 34.052C60.7245 34.916 58.7725 35.348 56.5965 35.348ZM57.5085 30.26C59.0125 30.26 60.3565 29.956 61.5405 29.348C62.7245 28.708 63.6365 27.844 64.2765 26.756C64.9485 25.636 65.2845 24.356 65.2845 22.916C65.2845 21.476 64.9485 20.212 64.2765 19.124C63.6365 18.004 62.7245 17.156 61.5405 16.58C60.3565 15.972 59.0125 15.668 57.5085 15.668C56.0045 15.668 54.6445 15.972 53.4285 16.58C52.2445 17.156 51.3165 18.004 50.6445 19.124C50.0045 20.212 49.6845 21.476 49.6845 22.916C49.6845 24.356 50.0045 25.636 50.6445 26.756C51.3165 27.844 52.2445 28.708 53.4285 29.348C54.6445 29.956 56.0045 30.26 57.5085 30.26ZM90.5966 36.836C87.9726 36.836 85.6366 36.276 83.5886 35.156C81.5406 34.004 79.9246 32.436 78.7406 30.452C77.5566 28.468 76.9646 26.212 76.9646 23.684C76.9646 21.124 77.5566 18.868 78.7406 16.916C79.9246 14.932 81.5406 13.38 83.5886 12.26C85.6366 11.14 87.9726 10.58 90.5966 10.58C93.2526 10.58 95.6046 11.14 97.6526 12.26C99.7326 13.38 101.349 14.916 102.501 16.868C103.685 18.82 104.277 21.092 104.277 23.684C104.277 26.212 103.685 28.468 102.501 30.452C101.349 32.436 99.7326 34.004 97.6526 35.156C95.6046 36.276 93.2526 36.836 90.5966 36.836ZM90.5966 31.7C92.0686 31.7 93.3806 31.38 94.5326 30.74C95.6846 30.1 96.5806 29.172 97.2206 27.956C97.8926 26.74 98.2286 25.316 98.2286 23.684C98.2286 22.02 97.8926 20.596 97.2206 19.412C96.5806 18.196 95.6846 17.268 94.5326 16.628C93.3806 15.988 92.0846 15.668 90.6446 15.668C89.1726 15.668 87.8606 15.988 86.7086 16.628C85.5886 17.268 84.6926 18.196 84.0206 19.412C83.3486 20.596 83.0126 22.02 83.0126 23.684C83.0126 25.316 83.3486 26.74 84.0206 27.956C84.6926 29.172 85.5886 30.1 86.7086 30.74C87.8606 31.38 89.1566 31.7 90.5966 31.7Z" fill="white"/>
</svg>
